<?xml version="1.0" encoding="UTF-8"?>
<svg version="1.1" xmlns="http://www.w3.org/2000/svg" width="1024" height="1024">
<path d="M0 0 C337.92 0 675.84 0 1024 0 C1024 337.92 1024 675.84 1024 1024 C686.08 1024 348.16 1024 0 1024 C0 686.08 0 348.16 0 0 Z " fill="#184F6A" transform="translate(0,0)"/>
<path d="M0 0 C337.92 0 675.84 0 1024 0 C1024 337.92 1024 675.84 1024 1024 C686.08 1024 348.16 1024 0 1024 C0 686.08 0 348.16 0 0 Z M176 42 C175.11758723 42.14325063 174.23517446 42.28650126 173.32602191 42.43409282 C132.20424102 49.42585463 94.08341983 75.33785027 70 109 C66.43576777 114.19617364 63.15470747 119.54714273 60 125 C59.37351562 126.0828125 58.74703125 127.165625 58.1015625 128.28125 C54.31044765 135.34884873 51.47198681 142.69522928 48.8125 150.25 C48.4913623 151.12205078 48.17022461 151.99410156 47.83935547 152.89257812 C40.66139867 174.24468114 40.41007067 196.96442213 40.53573751 219.24054885 C40.55334359 223.17332233 40.54714294 227.10607748 40.54412842 231.03887939 C40.54205155 237.8200077 40.55438341 244.60097965 40.57707977 251.38206863 C40.60987131 261.18582802 40.62003421 270.98951338 40.62503174 280.79332165 C40.63374233 296.70714639 40.66024161 312.62088816 40.69824219 328.53466797 C40.73507286 343.97476798 40.76333018 359.41484528 40.78027344 374.85498047 C40.78132433 375.80996223 40.78237523 376.764944 40.78345796 377.74886461 C40.78867888 382.54069891 40.79373353 387.33253338 40.79870558 392.12436795 C40.8400354 431.74963665 40.91036681 471.3748128 41 511 C42.87601105 511.8059689 44.75462393 512.60588294 46.63427734 513.40332031 C47.68014008 513.84943665 48.72600281 514.29555298 49.80355835 514.75518799 C54.63953663 516.6384959 59.54935052 517.7252415 64.625 518.75 C65.5840625 518.95753906 66.543125 519.16507813 67.53125 519.37890625 C132.17151047 532.95511272 190.44964476 506.87559728 245.3125 475.5625 C280.6995363 455.40735535 317.9869896 435.80254103 358 427 C358.86206055 426.80535156 359.72412109 426.61070312 360.61230469 426.41015625 C403.51138277 416.99666188 435.93072364 427.89469227 472.625 449.125 C481.53982371 454.27187058 490.54193642 458.93459002 500 463 C500.63115723 463.27537598 501.26231445 463.55075195 501.91259766 463.83447266 C527.14894251 474.66123658 555.25284619 477.71653689 582 471 C582.68288086 470.83371094 583.36576172 470.66742188 584.06933594 470.49609375 C595.61153563 467.61187911 606.31574713 463.18860327 617 458 C617.98758301 457.52167725 617.98758301 457.52167725 618.99511719 457.03369141 C628.96700062 452.12828989 638.40939496 446.36471951 647.875 440.5625 C667.62768437 428.46179188 686.97138699 417.36100437 710 413 C710.9590625 412.81566406 711.918125 412.63132812 712.90625 412.44140625 C753.36829803 406.66841202 790.45942709 432.36122912 823.17578125 452.38671875 C825.55421569 453.84191897 827.9330606 455.29644355 830.3125 456.75 C831.18784393 457.28474442 831.18784393 457.28474442 832.08087158 457.83029175 C842.4511712 464.15457188 852.97366069 470.13964987 863.72119141 475.79980469 C865.73050367 476.85806257 867.73089601 477.93133094 869.73046875 479.0078125 C879.78170634 484.26320753 890.28535969 488.31286018 901 492 C901.69367676 492.24443848 902.38735352 492.48887695 903.10205078 492.74072266 C922.70101988 499.36942173 947.45812348 497.86799629 967 492 C973.93 490.02 973.93 490.02 981 488 C980.34 521.66 979.68 555.32 979 590 C952.92812507 597.11051134 924.78518061 597.54840398 899.41796875 586.91796875 C896.9395737 585.97705948 894.81990736 585.61073797 892.1875 585.375 C891.39730469 585.30023437 890.60710938 585.22546875 889.79296875 585.1484375 C889.20128906 585.09945312 888.60960937 585.05046875 888 585 C887.67 584.01 887.34 583.02 887 582 C885.12042227 581.51631634 883.23722459 581.04367061 881.34082031 580.63085938 C877.05875027 579.47682631 873.27005291 577.33152633 869.375 575.25 C868.47128662 574.77119385 867.56757324 574.2923877 866.63647461 573.79907227 C853.03703281 566.46368674 840.02064246 558.06096058 827.53417969 548.96630859 C800.76738849 529.54434993 772.08946375 511.07180334 740 502 C738.8553125 501.66097656 737.710625 501.32195312 736.53125 500.97265625 C719.52731673 496.74117286 698.78791807 496.95345008 682 502 C680.86433594 502.3403125 679.72867188 502.680625 678.55859375 503.03125 C652.11736639 511.77605816 629.70710334 528.87534589 608.12744141 545.95898438 C585.23722442 564.0696339 561.83349557 580.51334235 534 590 C532.39705078 590.58394531 532.39705078 590.58394531 530.76171875 591.1796875 C518.72613164 595.45692598 507.02859528 596.38563891 494.3125 596.3125 C493.60357605 596.30968018 492.8946521 596.30686035 492.16424561 596.30395508 C474.22700504 596.19683389 458.90139356 592.52429747 441.8515625 587.12890625 C425.50005845 581.99073 408.98873606 577.40039853 392 575 C390.75605469 574.79632812 389.51210938 574.59265625 388.23046875 574.3828125 C363.57373014 570.7012024 337.29150863 571.79713787 313 577 C312.11957031 577.17660156 311.23914063 577.35320313 310.33203125 577.53515625 C280.92277199 583.46976014 253.05580131 595.31673066 226.7578125 609.52197266 C216.8322873 614.84147775 206.80740853 619.97710129 196.77587891 625.09326172 C195.07971639 625.95929795 193.38551135 626.82916477 191.69140625 627.69921875 C170.31981548 638.60956113 149.22979258 646.80348514 125.3125 649.5625 C124.61319366 649.64330811 123.91388733 649.72411621 123.19338989 649.80737305 C110.21022605 651.24822422 96.77829746 652.20644002 83.875 649.75 C83.1320166 649.61867676 82.3890332 649.48735352 81.62353516 649.35205078 C75.62507665 648.2407493 69.85109542 646.62934535 64.015625 644.8515625 C60.32165909 643.80844778 56.81881269 643.30550502 53 643 C52.505 641.515 52.505 641.515 52 640 C48.30414334 637.78248601 46.36991627 637 42 637 C41.59217279 669.66600891 41.26057537 702.33248105 41 735 C40.99051079 736.17485962 40.98102158 737.34971924 40.97124481 738.56018066 C40.85101483 753.5712822 40.76095798 768.58214891 40.71289062 783.59365845 C40.69820526 787.95718875 40.67394422 792.32049877 40.64111328 796.68392944 C40.08563992 828.09565577 40.08563992 828.09565577 45 859 C45.19924576 859.79314102 45.39849152 860.58628204 45.60377502 861.40345764 C51.90453871 886.22715492 64.21697419 908.97219351 81.76953125 927.61328125 C83.5925622 929.56402015 85.27351795 931.54144655 86.9375 933.625 C91.02546297 938.41896214 96.02560075 942.17353904 101 946 C101.52094238 946.4012207 102.04188477 946.80244141 102.57861328 947.21582031 C115.78852373 957.28622737 129.88715008 965.29598406 145.5859375 970.7578125 C148.33404368 971.75769553 150.7165968 972.82170272 153.25 974.25 C157.32392296 976.4263562 161.54780958 976.92819912 166.08203125 977.5703125 C168.49527721 977.9256767 170.76662548 978.39766466 173.125 979 C189.24394434 982.60946308 205.79336683 982.28762235 222.20866394 982.26069641 C224.83688665 982.26372139 227.46509777 982.26753259 230.09331685 982.27228898 C235.78041718 982.28099751 241.46748147 982.2823823 247.15458679 982.27878571 C255.61171808 982.27345155 264.06881484 982.27960098 272.52594237 982.28786864 C288.51090447 982.3030674 304.49585066 982.30481811 320.48081847 982.30234561 C332.82437056 982.30050982 345.16791745 982.30227855 357.51146889 982.30657005 C359.28759019 982.30717246 361.06371149 982.30777366 362.83983279 982.30837366 C365.5165318 982.30928095 368.19323082 982.31018962 370.86992984 982.31110601 C395.7377837 982.31952881 420.60563562 982.32387571 445.47349072 982.31969929 C446.87813956 982.31946472 446.87813956 982.31946472 448.31116515 982.31922542 C453.05693617 982.31841969 457.80270719 982.31757391 462.54847821 982.31671212 C463.49093776 982.31654103 464.43339731 982.31636994 465.40441624 982.31619367 C467.31029315 982.31584701 469.21617006 982.31549848 471.12204697 982.31514808 C500.79093043 982.30978848 530.45978419 982.31773086 560.12866211 982.33618164 C593.49103831 982.35690527 626.85339612 982.36762396 660.21577913 982.36360615 C663.77384555 982.36321083 667.33191198 982.36284928 670.88997841 982.36250877 C671.76601376 982.36241804 672.64204912 982.36232731 673.544631 982.36223383 C686.75630073 982.36106894 699.96795185 982.36770763 713.17961693 982.37832069 C728.20399277 982.39037789 743.22832765 982.39192535 758.25270411 982.37953053 C766.65469006 982.37290887 775.05657801 982.37451707 783.4585561 982.38811904 C789.73893147 982.39735245 796.01919925 982.39082995 802.29956678 982.37827124 C804.834945 982.37562017 807.37033469 982.37800369 809.90570166 982.38600711 C827.17892886 982.4489066 827.17892886 982.4489066 844.15678483 979.64919728 C846.82960804 979.03890595 849.08404973 978.85733817 851.8125 978.9375 C852.864375 978.958125 853.91625 978.97875 855 979 C855.66 978.34 856.32 977.68 857 977 C859.49993454 976.30492474 861.97125485 975.69155418 864.5 975.125 C870.1975243 973.78313414 875.52402629 972.18948114 880.91015625 969.859375 C883 969 883 969 886.5 968.125 C890.64002595 966.79427737 893.92019086 964.7698461 897.5703125 962.4375 C899.98578163 961.00841215 902.37184327 959.97269857 905 959 C905 958.34 905 957.68 905 957 C905.7115625 956.75121094 906.423125 956.50242187 907.15625 956.24609375 C912.68570715 953.82315854 917.29117511 949.73225135 922 946 C922.54285645 945.56977539 923.08571289 945.13955078 923.64501953 944.69628906 C929.94439654 939.65153641 935.83445255 934.37137843 941.3125 928.4375 C941.78695557 927.92469482 942.26141113 927.41188965 942.75024414 926.88354492 C945.27027816 924.33661286 945.27027816 924.33661286 946 921 C946.66 921 947.32 921 948 921 C950.39820305 918.36315253 950.39820305 918.36315253 951 915 C951.66 915 952.32 915 953 915 C953.3403125 914.36835937 953.680625 913.73671875 954.03125 913.0859375 C954.5159375 912.19132813 955.000625 911.29671875 955.5 910.375 C956.04914062 909.35921875 956.59828125 908.3434375 957.1640625 907.296875 C958.36661855 905.13739136 959.61040511 903.00024184 960.8984375 900.890625 C966.62997139 891.42113422 970.47725302 881.53766706 974.21801758 871.13745117 C974.82865352 869.46835418 975.48562424 867.81618872 976.16015625 866.171875 C977.03970564 863.89731936 977.57996015 861.70086953 978.0625 859.3125 C978.53756023 856.97646 978.93223922 855.13552156 980 853 C980.36926157 850.37478103 980.70171717 847.75827812 981 845.125 C981.87815782 837.45484031 981.87815782 837.45484031 982.52312801 835.04714835 C983.05225182 832.77568984 983.12712097 830.75706657 983.12995183 828.42531395 C983.13348025 827.50467866 983.13700867 826.58404336 983.14064401 825.63551003 C983.13944624 824.62563638 983.13824846 823.61576274 983.13701439 822.57528687 C983.14099213 820.95757555 983.14099213 820.95757555 983.14505023 819.30718321 C983.15276194 815.66229968 983.15330312 812.01744974 983.15390015 808.37255859 C983.1579136 805.74506407 983.16235163 803.11757017 983.1671797 800.49007702 C983.17825781 794.00571217 983.18390461 787.52135273 983.18788858 781.03698008 C983.19289684 773.27139637 983.20362469 765.50582316 983.21437032 757.74024565 C983.24001189 738.96179039 983.25504159 720.18333104 983.26788078 701.40486329 C983.27213627 695.18099949 983.27670204 688.95713599 983.2814641 682.73327255 C983.30673493 649.62023431 983.32877675 616.50719555 983.34119225 583.39414978 C983.34411346 575.71996051 983.34708099 568.04577126 983.35009766 560.37158203 C983.35065402 558.94147998 983.35065402 558.94147998 983.35122162 557.48248698 C983.36335986 526.61524514 983.39427302 495.74806054 983.43601918 464.88084555 C983.47888214 433.12970064 983.50544317 401.37858595 983.51066696 369.62741134 C983.51140732 365.13476589 983.51231799 360.64212049 983.51332474 356.1494751 C983.51351535 355.26534949 983.51370597 354.38122387 983.51390236 353.47030658 C983.51740519 339.28676987 983.53765404 325.10330516 983.56412137 310.91979482 C983.59037373 296.63489247 983.59794829 282.35007261 983.58702008 268.06514961 C983.5810794 259.59702065 983.58876232 251.12917315 983.61685092 242.66108724 C983.63428353 236.9808842 983.63300407 231.30087002 983.61748323 225.6206623 C983.60918475 222.39924084 983.61095261 219.17844654 983.63009469 215.95705676 C983.9019798 167.16541124 968.73267837 121.63599879 934.42529297 86.38183594 C904.19449546 56.30931485 862.00243803 39.7832291 819.58861923 39.87136555 C818.50069586 39.86961251 817.41277249 39.86785947 816.29188174 39.86605331 C812.66314176 39.86141842 809.03444229 39.86385232 805.40570068 39.86628723 C802.77099835 39.864418 800.13629896 39.86215651 797.50159764 39.85942191 C791.78172233 39.85428481 786.06185547 39.85284776 780.34197807 39.85387802 C771.83595815 39.85540635 763.32994755 39.85123369 754.82392945 39.8460034 C738.74645075 39.83634335 722.66897525 39.83351967 706.59149399 39.83294634 C694.17439114 39.83248644 681.75728953 39.83042623 669.34018707 39.82724571 C665.76332641 39.82634814 662.18646574 39.82545833 658.60960507 39.82457083 C657.27570647 39.82423926 657.27570647 39.82423926 655.91486041 39.82390099 C630.90912556 39.81774873 605.90339113 39.81380024 580.89765549 39.81424427 C579.95530347 39.81425985 579.01295145 39.81427543 578.04204331 39.81429148 C573.26602564 39.81437458 568.49000797 39.81447362 563.7139903 39.81457619 C562.76548909 39.81459613 561.81698788 39.81461608 560.83974421 39.81463663 C558.92164496 39.81467706 557.00354572 39.81471886 555.08544648 39.81476202 C525.24299461 39.81537477 495.40055409 39.8078674 465.55810547 39.79418945 C432.01521249 39.77882171 398.47232697 39.77022363 364.92943025 39.77115268 C361.35131216 39.7712273 357.77319408 39.77127601 354.19507599 39.77130699 C352.87358141 39.77132447 352.87358141 39.77132447 351.52538997 39.77134231 C337.36226753 39.77137305 323.19915497 39.76499361 309.03603546 39.75637473 C294.79714157 39.74788905 280.5582621 39.74691548 266.31936708 39.75348405 C257.86654017 39.75717343 249.41375716 39.75536561 240.96093492 39.74554171 C235.30652101 39.73952681 229.65213878 39.7408539 223.99772631 39.74801221 C220.78148911 39.75188097 217.56535294 39.75158784 214.34911868 39.74455485 C201.40433494 39.71813074 188.79307932 39.87633205 176 42 Z " fill="#DBE0E5" transform="translate(0,0)"/>
<path d="M0 0 C1.08676953 -0.00175304 2.17353906 -0.00350607 3.29324099 -0.00531223 C6.92407753 -0.00995318 10.55487369 -0.00751165 14.18571186 -0.00507832 C16.81955115 -0.00694725 19.45338747 -0.00920856 22.08722574 -0.01194364 C27.80831379 -0.01708369 33.52939338 -0.01851727 39.25048351 -0.01748753 C47.75832277 -0.01595995 56.26615271 -0.0201302 64.77399015 -0.02536215 C80.85487459 -0.03502513 96.93575583 -0.037846 113.01664283 -0.03841921 C125.43663002 -0.03887903 137.85661596 -0.04093882 150.27660275 -0.04411983 C153.85372633 -0.0450174 157.43084991 -0.04590721 161.00797349 -0.04679471 C161.89729649 -0.04701576 162.78661948 -0.04723681 163.70289166 -0.04746456 C188.71255438 -0.05361739 213.72221667 -0.05756526 238.73188019 -0.05712128 C239.67449822 -0.0571057 240.61711626 -0.05709012 241.58829848 -0.05707407 C246.36570697 -0.05699096 251.14311547 -0.05689192 255.92052396 -0.05678936 C256.86930751 -0.05676942 257.81809107 -0.05674947 258.79562563 -0.05672892 C260.71429654 -0.05668848 262.63296745 -0.05664669 264.55163836 -0.05660353 C294.40064043 -0.05599082 324.24963113 -0.06349703 354.09862995 -0.07717609 C387.6462767 -0.09254389 421.19391599 -0.1011419 454.74156648 -0.10021287 C458.32026184 -0.10013824 461.89895719 -0.10008954 465.47765255 -0.10005856 C466.79936688 -0.10004107 466.79936688 -0.10004107 468.1477825 -0.10002324 C482.31374941 -0.0999925 496.47970643 -0.10637218 510.6456704 -0.11499082 C524.88804696 -0.12347661 539.13040909 -0.12444999 553.37278678 -0.1178815 C561.82783035 -0.11419209 570.28283004 -0.11599998 578.73786893 -0.12582384 C584.39379585 -0.13183874 590.0496911 -0.13051165 595.70561659 -0.12335334 C598.92273557 -0.11948456 602.13975355 -0.11977775 605.3568696 -0.12681069 C618.30651997 -0.15323731 630.91438416 0.00966946 643.71166706 2.12863445 C644.97190746 2.33021516 646.23214786 2.53179587 647.53057736 2.73948509 C687.1125945 9.39187461 724.31764157 33.52534764 747.83666706 65.81613445 C765.42257198 90.74564276 777.93322593 120.99522283 777.83192158 151.81599712 C777.832776 152.7734458 777.83363043 153.73089447 777.83451074 154.71735674 C777.83615377 157.91558507 777.83066347 161.11376059 777.82519245 164.31198406 C777.8249103 166.60855387 777.82506886 168.90512378 777.82563496 171.20169353 C777.82592184 177.43042712 777.82004269 183.65914144 777.813061 189.88787055 C777.80680934 196.39948507 777.80622222 202.91110004 777.80503559 209.42271709 C777.80228073 220.35016504 777.7960347 231.27760588 777.78710651 242.20505047 C777.77792171 253.45830532 777.7708461 264.71155825 777.7665987 275.96481609 C777.76633598 276.658947 777.76607325 277.3530779 777.76580257 278.06824308 C777.76449749 281.55063723 777.76323379 285.03303139 777.76199067 288.51542556 C777.75163091 317.38649986 777.73394928 346.25756699 777.71166706 375.12863445 C775.30291146 375.78880774 772.8930808 376.44448392 770.48241901 377.09762859 C769.80328701 377.28425312 769.12415501 377.47087765 768.42444324 377.66315746 C739.10253096 385.57630349 705.89622072 369.97530619 681.03588581 355.70675945 C674.9806764 352.14788944 669.16583666 348.25249638 663.38305378 344.2707243 C660.91247802 342.58253361 658.40300508 340.95444822 655.89916706 339.31613445 C649.26326539 334.89516511 642.83598975 330.1934967 636.38354206 325.51144695 C625.68851813 317.75554761 614.98953484 310.02242968 603.71166706 303.12863445 C602.61080769 302.44543133 601.50994831 301.7622282 600.37572956 301.05832195 C588.16484793 293.54877041 575.46732231 285.92092483 561.97338581 280.97238445 C560.39156788 280.38227621 558.83194911 279.73070065 557.29369831 279.03488445 C550.33413151 275.90157299 543.21346411 273.6590141 535.89916706 271.50363445 C534.92769733 271.21448162 533.95622761 270.92532879 532.9553194 270.62741375 C519.52839635 266.75798027 506.10229252 264.70858909 492.26012897 263.16791058 C441.54671618 257.41142689 396.54496419 240.08695818 350.74779987 218.29074383 C338.84989572 212.63173854 326.89388336 207.15370292 314.71166706 202.12863445 C314.01380085 201.83988445 313.31593464 201.55113445 312.59692097 201.25363445 C304.15044514 197.80626242 295.51113925 195.05570854 286.77416706 192.44113445 C285.83387653 192.15536541 284.89358601 191.86959637 283.92480183 191.57516766 C268.61253041 187.12251516 253.90508644 185.57367985 238.02416706 185.69113445 C237.14836994 185.69417583 236.27257282 185.69721722 235.3702364 185.70035076 C221.7998449 185.76991239 208.86997195 186.57248212 195.71166706 190.12863445 C194.8844112 190.34294109 194.05715534 190.55724773 193.20483112 190.77804852 C153.28202272 201.29049366 118.38353369 222.4314935 85.71166706 247.12863445 C85.15575886 247.54564617 84.59985065 247.96265789 84.02709675 248.39230633 C71.83695872 257.54740706 60.34157411 267.40532791 49.17358112 277.77560711 C46.80305492 279.96957108 44.41136248 282.14033917 42.02416706 284.31613445 C30.30234709 295.05822022 18.73953232 305.93757277 7.59570026 317.28146648 C3.69108783 321.23658825 -0.32538153 324.97175394 -4.53613567 328.59909344 C-6.54926413 330.35640844 -8.43253219 332.20655511 -10.28833294 334.12863445 C-14.12410976 338.00884112 -18.14302862 341.58429682 -22.28833294 345.12863445 C-23.3187091 346.02267239 -24.34862037 346.91724627 -25.37817669 347.8122282 C-48.91386697 368.21545834 -72.41489316 385.3106413 -102.28833294 395.12863445 C-103.53356731 395.56433758 -104.77880169 396.0000407 -106.06177044 396.44894695 C-114.89539199 399.14235395 -123.34499541 399.50428913 -132.53833294 399.56613445 C-133.71065472 399.57636639 -134.88297649 399.58659832 -136.09082317 399.59714031 C-144.96495964 399.50767951 -152.88875791 397.9284928 -161.28833294 395.12863445 C-161.35689844 362.93252338 -161.40992769 330.73643325 -161.44152893 298.54026613 C-161.44528066 294.73175011 -161.44916366 290.92323424 -161.45312786 287.11471844 C-161.45391479 286.35657095 -161.45470172 285.59842346 -161.4555125 284.8173018 C-161.46853568 272.57146291 -161.49217234 260.32566663 -161.51979133 248.07985295 C-161.54793176 235.49708544 -161.56452738 222.91434012 -161.57059842 210.33154243 C-161.57469703 202.57893473 -161.587601 194.82644754 -161.61208234 187.07387697 C-161.62994451 181.11050502 -161.63167693 175.14723484 -161.62765598 169.18383312 C-161.6284761 166.7511671 -161.63437332 164.3184962 -161.64594936 161.88585758 C-161.72625487 144.127522 -160.46270294 127.98704119 -154.60083294 111.06613445 C-154.25415569 110.04882244 -153.90747845 109.03151043 -153.55029583 107.98337078 C-139.43009855 67.6804481 -108.36429687 34.87215392 -70.28833294 16.12863445 C-47.65949162 5.50878031 -25.0247402 -0.05186397 0 0 Z " fill="#14213A" transform="translate(203.28833293914795,39.871365547180176)"/>
<path d="M0 0 C0.79830231 0.00021149 1.59660461 0.00042297 2.4190979 0.00064087 C14.90001615 0.03363724 26.50277633 0.98074413 38.5625 4.375 C39.9734198 4.73130601 41.38487998 5.08547908 42.796875 5.4375 C65.69522047 11.40752054 86.72743507 23.33047135 107.63989258 34.0993042 C109.94214964 35.28457051 112.24545783 36.46777764 114.54882812 37.65087891 C121.5337938 41.24235456 128.50222085 44.85473073 135.41137695 48.59057617 C172.01407305 68.31889347 210.95151087 80.7083569 251.9375 87.0625 C252.69699951 87.18197998 253.45649902 87.30145996 254.23901367 87.42456055 C316.62435828 96.63201603 379.8422675 79.97911883 435.0234375 51.19921875 C438.99188811 49.15367081 443.01438493 47.25618556 447.0625 45.375 C452.59164068 42.8003428 458.06128281 40.1351574 463.5 37.375 C483.81381714 27.15656485 502.88398576 19.28617575 525.9375 19.0625 C526.89527344 19.03349609 527.85304688 19.00449219 528.83984375 18.97460938 C535.48946359 18.91825666 541.54119662 19.89818899 547.98291016 21.40161133 C548.81107742 21.59047157 549.63924469 21.77933182 550.49250793 21.9739151 C552.5169112 22.43627205 554.5398609 22.90498554 556.5625 23.375 C556.58588832 44.1940833 556.6035083 65.01316443 556.61431217 85.83225822 C556.61946253 95.49950475 556.62648119 105.1667431 556.63793945 114.83398438 C556.64792482 123.26259273 556.65436259 131.69119516 556.65658849 140.11980927 C556.65788906 144.58026559 556.66093342 149.04070497 556.66823006 153.50115585 C556.67505111 157.7052071 556.67710464 161.90923453 556.67560768 166.11329079 C556.67588128 167.65069648 556.67785013 169.18810303 556.68170547 170.72550392 C556.7330946 192.28778855 556.7330946 192.28778855 553.5625 199.375 C553.27503906 200.55835938 552.98757813 201.74171875 552.69140625 202.9609375 C548.49625024 220.08647504 540.72278575 236.64227427 530.91015625 251.23828125 C529.41448003 253.42135688 529.41448003 253.42135688 528.5625 256.375 C527.9025 256.375 527.2425 256.375 526.5625 256.375 C526.253125 256.99375 525.94375 257.6125 525.625 258.25 C524.9375 259.625 524.25 261 523.5625 262.375 C522.9025 262.375 522.2425 262.375 521.5625 262.375 C521.35109375 262.89964844 521.1396875 263.42429687 520.921875 263.96484375 C514.57831485 275.21190299 502.83285446 283.90229379 492.5625 291.375 C491.56089844 292.11234375 490.55929687 292.8496875 489.52734375 293.609375 C482.903125 298.375 482.903125 298.375 480.5625 298.375 C480.2325 299.365 479.9025 300.355 479.5625 301.375 C477.453125 302.40234375 477.453125 302.40234375 474.8125 303.3125 C471.69424342 304.4631806 469.71604809 305.2416556 467.1875 307.4375 C463.57221337 310.10592584 459.88592049 310.6815374 455.54296875 311.66015625 C453.08978349 312.24853489 450.89217861 312.93238371 448.5625 313.875 C444.25704563 315.60260879 439.81128006 316.59386778 435.296875 317.62890625 C432.61578941 318.25377827 432.61578941 318.25377827 430.55859375 319.43359375 C427.95888458 320.65967968 425.73829548 320.7252852 422.875 320.875 C419.28722332 321.06508088 416.00655452 321.48861762 412.53915733 322.38075423 C407.19133616 323.5854235 402.03588174 323.65248004 396.57270145 323.62668228 C395.49390393 323.62958916 394.4151064 323.63249604 393.30361804 323.63549101 C389.68779309 323.64279125 386.07213781 323.63584733 382.45631409 323.62896729 C379.83800114 323.63127172 377.21968885 323.63444813 374.6013779 323.63842177 C368.90795228 323.64563771 363.2145646 323.64543058 357.52113724 323.64032745 C349.05430027 323.63275916 340.58749527 323.63663184 332.12065851 323.64274407 C316.99591286 323.65327613 301.8711841 323.65236223 286.74643684 323.64658624 C273.50487004 323.64155435 260.26330943 323.64024207 247.02174187 323.64263153 C246.14325622 323.6427843 245.26477057 323.64293707 244.35966414 323.64309447 C240.79346979 323.64371716 237.22727544 323.64435396 233.6610811 323.645014 C200.19994215 323.65113317 166.73881396 323.64558409 133.27767667 323.6348202 C103.56995901 323.62533634 73.86225851 323.62617186 44.15454102 323.63574219 C10.76803113 323.64646171 -22.61846925 323.65069174 -56.00498062 323.64451766 C-59.56745374 323.64387625 -63.12992686 323.64325057 -66.69239998 323.64263153 C-67.56955157 323.64247338 -68.44670316 323.64231522 -69.35043509 323.64215227 C-82.57523914 323.63988082 -95.80003631 323.64253152 -109.0248394 323.64759064 C-124.07459398 323.65331922 -139.12432904 323.65185843 -154.1740812 323.64102915 C-162.58870015 323.63517338 -171.00327679 323.63474877 -179.41789461 323.6423215 C-185.04950227 323.64682886 -190.68107622 323.64397459 -196.31267891 323.63531196 C-199.5143001 323.63058637 -202.71582191 323.62997939 -205.91744309 323.63612393 C-238.32981123 323.69353213 -238.32981123 323.69353213 -253.08984375 319.9375 C-257.67338548 318.83928035 -262.34611894 318.08898322 -266.984375 317.25390625 C-270.38447684 316.38849571 -272.49424841 315.21801401 -275.4375 313.375 C-277.71787596 312.55137527 -280.011393 311.76379239 -282.3125 311 C-299.2199715 304.96276231 -314.94080633 295.13865518 -328.4375 283.375 C-328.94200684 282.94058594 -329.44651367 282.50617188 -329.96630859 282.05859375 C-335.95120128 276.88622599 -341.42702862 271.49106835 -346.4375 265.375 C-347.35402344 264.30765625 -347.35402344 264.30765625 -348.2890625 263.21875 C-358.13295971 251.4531358 -365.46699003 238.2399643 -371.61328125 224.23950195 C-372.36715954 222.53412029 -373.16391383 220.84785891 -373.96484375 219.1640625 C-376.19112127 213.93286597 -377.28302443 208.33224761 -378.5625 202.8125 C-378.82675781 201.70197266 -379.09101563 200.59144531 -379.36328125 199.44726562 C-381.41454892 190.74759995 -382.5838536 182.81037375 -382.55102539 173.87158203 C-382.55117142 172.82707382 -382.55131744 171.78256561 -382.5514679 170.70640564 C-382.55077305 167.26518656 -382.54300066 163.82402208 -382.53515625 160.3828125 C-382.53329055 157.99242177 -382.53186736 155.60203065 -382.53086853 153.2116394 C-382.52705532 146.92837463 -382.51723522 140.64513306 -382.50616455 134.36187744 C-382.49592473 127.94698399 -382.4913654 121.53208677 -382.48632812 115.1171875 C-382.47561189 102.53644845 -382.45874277 89.95572546 -382.4375 77.375 C-379.46388682 78.54732805 -376.63900555 79.72715884 -373.87109375 81.328125 C-373.22769043 81.69687744 -372.58428711 82.06562988 -371.92138672 82.44555664 C-371.2460791 82.83477295 -370.57077148 83.22398926 -369.875 83.625 C-326.49754688 108.17227233 -278.05111816 116.28277048 -229.43359375 103.53515625 C-228.10010408 103.15349678 -226.76829244 102.76596051 -225.4375 102.375 C-224.47175049 102.09495117 -223.50600098 101.81490234 -222.51098633 101.52636719 C-214.89798694 99.2596549 -207.56114368 96.6010557 -200.25 93.5 C-199.14720703 93.03311768 -198.04441406 92.56623535 -196.90820312 92.08520508 C-176.31205765 83.16108291 -157.03482069 71.68130991 -138.1875 59.5625 C-137.07922852 58.85182373 -135.97095703 58.14114746 -134.82910156 57.40893555 C-130.36071409 54.54262686 -125.89420225 51.67351272 -121.4375 48.7890625 C-60.2027231 9.19253609 -60.2027231 9.19253609 -28.4375 2.375 C-27.34296509 2.11904053 -27.34296509 2.11904053 -26.22631836 1.85791016 C-17.52630168 0.01442754 -8.84889984 -0.02158853 0 0 Z " fill="#0D152A" transform="translate(424.4375,658.625)"/>
<path d="M0 0 C17.94109386 12.84265157 36.36268931 24.86910589 55.81982422 35.27636719 C57.00475464 35.91517822 57.00475464 35.91517822 58.21362305 36.56689453 C62.69283269 38.9211614 66.89998343 40.6416187 71.81982422 41.83886719 C71.81982422 42.49886719 71.81982422 43.15886719 71.81982422 43.83886719 C72.38830078 43.87625 72.95677734 43.91363281 73.54248047 43.95214844 C74.31462891 44.01789063 75.08677734 44.08363281 75.88232422 44.15136719 C76.63642578 44.209375 77.39052734 44.26738281 78.16748047 44.32714844 C81.6340338 44.99595328 84.58514156 46.43278458 87.81982422 47.83886719 C111.29025209 55.09430199 134.42669831 54.71403741 158.50830078 51.11425781 C160.81982422 50.83886719 160.81982422 50.83886719 164.81982422 50.83886719 C164.81982422 80.53886719 164.81982422 110.23886719 164.81982422 140.83886719 C156.126101 139.75215179 156.126101 139.75215179 152.04638672 138.79589844 C120.60564146 132.34328272 92.23777161 145.221219 64.81982422 158.83886719 C64.05476562 159.21720703 63.28970703 159.59554687 62.50146484 159.98535156 C56.70116086 162.8563163 50.91627515 165.75640154 45.16357422 168.72167969 C21.00891324 181.10188994 -4.69409422 192.54760827 -31.18017578 198.83886719 C-32.60692627 199.18062988 -32.60692627 199.18062988 -34.0625 199.52929688 C-71.11333891 208.25950798 -107.84609972 210.62930827 -145.55517578 204.65136719 C-146.24815765 204.54215942 -146.94113953 204.43295166 -147.65512085 204.32043457 C-179.31440883 199.27956459 -209.17101807 189.40795974 -238.18017578 175.83886719 C-239.24042969 175.34451172 -240.30068359 174.85015625 -241.39306641 174.34082031 C-257.49184481 166.80088612 -273.24631174 158.72687527 -288.84033203 150.19824219 C-320.05333396 133.170577 -352.39884876 118.42111532 -388.58740234 118.52319336 C-390.91307955 118.52634403 -393.23746797 118.50283782 -395.56298828 118.47753906 C-408.58823282 118.42195186 -421.23656164 120.03395413 -433.61767578 124.27636719 C-434.34390137 124.52386719 -435.07012695 124.77136719 -435.81835938 125.02636719 C-459.78644718 133.59173411 -481.86718424 147.13127975 -503.18017578 160.83886719 C-504.29005859 161.55171875 -505.39994141 162.26457031 -506.54345703 162.99902344 C-507.51669922 163.62679687 -508.48994141 164.25457031 -509.49267578 164.90136719 C-515.7958212 168.95767586 -522.11066738 172.99560581 -528.43017578 177.02636719 C-529.34065674 177.60845947 -530.2511377 178.19055176 -531.18920898 178.7902832 C-541.64501939 185.45224994 -552.30384036 191.69766181 -563.14404297 197.70849609 C-564.45115705 198.43414815 -565.75664646 199.1627389 -567.06005859 199.89501953 C-607.87589607 222.78394399 -655.72934324 234.50977823 -702.18017578 224.83886719 C-702.98970703 224.67257812 -703.79923828 224.50628906 -704.63330078 224.33496094 C-730.06785291 218.93611733 -751.94842256 208.17791912 -774.18017578 194.83886719 C-774.18017578 227.83886719 -774.18017578 260.83886719 -774.18017578 294.83886719 C-774.51017578 294.83886719 -774.84017578 294.83886719 -775.18017578 294.83886719 C-775.21152639 280.0472106 -775.2314092 265.25555271 -775.24267578 250.46386719 C-775.2435318 249.34815464 -775.24438782 248.23244209 -775.24526978 247.08292007 C-775.2697248 210.89466529 -775.0790487 174.71240569 -774.68017578 138.52636719 C-774.66821796 137.44095894 -774.65626015 136.35555069 -774.64393997 135.23725128 C-774.49844078 122.10434492 -774.34413422 108.97155578 -774.18017578 95.83886719 C-769.82544347 96.47217313 -766.77190577 97.19788925 -763.18017578 99.83886719 C-763.18017578 100.49886719 -763.18017578 101.15886719 -763.18017578 101.83886719 C-762.14892578 101.92136719 -761.11767578 102.00386719 -760.05517578 102.08886719 C-756.15156289 102.56658205 -752.56447055 103.56859367 -748.80517578 104.71386719 C-729.17703389 110.45971214 -710.55499272 110.58259845 -690.37890625 108.09033203 C-688.4543594 107.87022507 -686.52229704 107.71799899 -684.59033203 107.57714844 C-659.17354123 105.33534673 -635.52551166 92.25973877 -613.18017578 80.83886719 C-612.36311157 80.4217749 -611.54604736 80.00468262 -610.70422363 79.57495117 C-603.02325363 75.6524257 -595.34428646 71.72605823 -587.68896484 67.75366211 C-575.08025741 61.21984114 -562.40529937 54.92175238 -549.18017578 49.71386719 C-548.33189209 49.37895264 -547.4836084 49.04403809 -546.60961914 48.69897461 C-532.3873417 43.13851599 -518.11904733 38.98713118 -503.18017578 35.83886719 C-502.25543457 35.63841797 -501.33069336 35.43796875 -500.37792969 35.23144531 C-455.29377265 25.75639422 -410.06024164 34.11211533 -366.98486328 48.29980469 C-328.92170575 60.72330224 -291.4753175 55.80447733 -256.17382812 37.88037109 C-237.40813677 28.07698641 -220.61564231 14.76132413 -204.11767578 1.60058594 C-135.04648014 -53.23326511 -71.20959854 -51.05976916 0 0 Z " fill="#0F5A66" transform="translate(816.18017578125,541.1611328125)"/>
<path d="M0 0 C2.37843444 1.45520022 4.75727935 2.9097248 7.13671875 4.36328125 C8.01206268 4.89802567 8.01206268 4.89802567 8.90509033 5.443573 C19.27538995 11.76785313 29.79787944 17.75293112 40.54541016 23.41308594 C42.55472242 24.47134382 44.55511476 25.54461219 46.5546875 26.62109375 C56.60592509 31.87648878 67.10957844 35.92614143 77.82421875 39.61328125 C78.51789551 39.85771973 79.21157227 40.1021582 79.92626953 40.35400391 C103.26037717 48.24598929 130.11101115 44.31267366 152.82421875 36.61328125 C154.49020362 36.56561359 156.15853868 36.55594287 157.82421875 36.61328125 C157.94720804 70.62944097 157.79171067 104.60954248 156.82421875 138.61328125 C132.81783102 149.29022533 103.0906614 145.73497683 78.82421875 137.61328125 C77.97085938 137.26394531 77.1175 136.91460938 76.23828125 136.5546875 C73.1184078 135.33803782 69.99733734 134.78445556 66.71484375 134.17578125 C66.0909375 133.99015625 65.46703125 133.80453125 64.82421875 133.61328125 C64.49421875 132.95328125 64.16421875 132.29328125 63.82421875 131.61328125 C61.93933351 131.16227033 60.05376783 130.71393104 58.16503906 130.27929688 C53.89817207 129.06527798 50.09764671 126.94661122 46.19921875 124.86328125 C45.29550537 124.3844751 44.39179199 123.90566895 43.46069336 123.41235352 C29.86125156 116.07696799 16.84486121 107.67424183 4.35839844 98.57958984 C-22.40839276 79.15763118 -51.0863175 60.68508459 -83.17578125 51.61328125 C-84.32046875 51.27425781 -85.46515625 50.93523437 -86.64453125 50.5859375 C-103.64846452 46.35445411 -124.38786318 46.56673133 -141.17578125 51.61328125 C-142.31144531 51.95359375 -143.44710937 52.29390625 -144.6171875 52.64453125 C-171.05841486 61.38933941 -193.46867791 78.48862714 -215.04833984 95.57226562 C-237.93855683 113.68291515 -261.34228568 130.1266236 -289.17578125 139.61328125 C-290.24441406 140.00257813 -291.31304688 140.391875 -292.4140625 140.79296875 C-304.44964961 145.07020723 -316.14718597 145.99892016 -328.86328125 145.92578125 C-329.5722052 145.92296143 -330.28112915 145.9201416 -331.01153564 145.91723633 C-348.94877621 145.81011514 -364.27438769 142.13757872 -381.32421875 136.7421875 C-397.6757228 131.60401125 -414.18704519 127.01367978 -431.17578125 124.61328125 C-432.41972656 124.40960937 -433.66367187 124.2059375 -434.9453125 123.99609375 C-459.60205111 120.31448365 -485.88427262 121.41041912 -510.17578125 126.61328125 C-511.49642578 126.87818359 -511.49642578 126.87818359 -512.84375 127.1484375 C-542.25300926 133.08304139 -570.11997994 144.93001191 -596.41796875 159.13525391 C-606.34349395 164.454759 -616.36837272 169.59038254 -626.39990234 174.70654297 C-628.09606486 175.5725792 -629.7902699 176.44244602 -631.484375 177.3125 C-652.85596577 188.22284238 -673.94598867 196.41676639 -697.86328125 199.17578125 C-698.91224075 199.29699341 -698.91224075 199.29699341 -699.98239136 199.4206543 C-712.96492303 200.86143531 -726.39828539 201.82112132 -739.30078125 199.36328125 C-740.04376465 199.23123291 -740.78674805 199.09918457 -741.55224609 198.96313477 C-747.54008721 197.84931167 -753.33828297 196.30297294 -759.1640625 194.5234375 C-761.76229252 193.73823958 -764.34185248 193.08314223 -766.98828125 192.48828125 C-768.04015625 192.19953125 -769.09203125 191.91078125 -770.17578125 191.61328125 C-770.50578125 190.95328125 -770.83578125 190.29328125 -771.17578125 189.61328125 C-774.47578125 188.29328125 -777.77578125 186.97328125 -781.17578125 185.61328125 C-781.17578125 217.95328125 -781.17578125 250.29328125 -781.17578125 283.61328125 C-781.50578125 283.61328125 -781.83578125 283.61328125 -782.17578125 283.61328125 C-782.17578125 209.69328125 -782.17578125 135.77328125 -782.17578125 59.61328125 C-772.27578125 62.58328125 -772.27578125 62.58328125 -762.17578125 65.61328125 C-694.56239601 80.69626719 -635.73940014 56.2087055 -577.86328125 23.17578125 C-542.47624495 3.0206366 -505.18879165 -16.58417772 -465.17578125 -25.38671875 C-463.88269043 -25.67869141 -463.88269043 -25.67869141 -462.56347656 -25.9765625 C-419.66439848 -35.39005687 -387.24505761 -24.49202648 -350.55078125 -3.26171875 C-341.63595754 1.88515183 -332.63384483 6.54787127 -323.17578125 10.61328125 C-322.22904541 11.02634521 -322.22904541 11.02634521 -321.26318359 11.44775391 C-296.02683874 22.27451783 -267.92293506 25.32981814 -241.17578125 18.61328125 C-240.15145996 18.36384766 -240.15145996 18.36384766 -239.10644531 18.109375 C-227.56424562 15.22516036 -216.86003412 10.80188452 -206.17578125 5.61328125 C-205.51739258 5.29439941 -204.85900391 4.97551758 -204.18066406 4.64697266 C-194.20878063 -0.25842886 -184.76638629 -6.02199924 -175.30078125 -11.82421875 C-155.54809688 -23.92492687 -136.20439426 -35.02571438 -113.17578125 -39.38671875 C-112.21671875 -39.57105469 -111.25765625 -39.75539063 -110.26953125 -39.9453125 C-69.80748322 -45.71830673 -32.71635416 -20.02548963 0 0 Z " fill="#38DFD2" transform="translate(823.17578125,451.38671875)"/>
<path d="M0 0 C0.33 0 0.66 0 1 0 C2.04210221 5.9777333 2.14099535 11.78865603 2.12863445 17.84807205 C2.13038749 18.93580933 2.13214053 20.02354661 2.13394669 21.14424562 C2.13861205 24.80233282 2.1361398 28.46038037 2.13371277 32.11846924 C2.13558045 34.76224611 2.13784105 37.40602002 2.14057809 40.04979587 C2.14572987 45.80464177 2.14714968 51.55947926 2.14612198 57.31432724 C2.14459752 65.87173248 2.14875767 74.4291284 2.1539966 82.98653183 C2.16366963 99.15678831 2.16648079 115.32704162 2.16705366 131.49730065 C2.16751299 143.97947082 2.16957021 156.46163975 2.17275429 168.94380951 C2.1736518 172.53510626 2.17454162 176.12640301 2.17542917 179.71769977 C2.17565021 180.61045698 2.17587126 181.50321419 2.17609901 182.42302465 C2.18225316 207.53414873 2.18619956 232.64527238 2.18575573 257.75639725 C2.18574015 258.70319005 2.18572457 259.64998285 2.18570852 260.62546634 C2.18562541 265.4243782 2.18552637 270.22329006 2.18542381 275.02220193 C2.18540387 275.97531334 2.18538392 276.92842476 2.18536337 277.91041834 C2.18532294 279.83783915 2.18528114 281.76525996 2.18523798 283.69268077 C2.18462478 313.70202639 2.19214002 343.71136073 2.20581055 373.72070312 C2.22115603 407.42091517 2.22977776 441.1211198 2.22884732 474.82133555 C2.22877269 478.41137489 2.22872399 482.00141422 2.22869301 485.59145355 C2.22868135 486.47544209 2.2286697 487.35943062 2.22865769 488.27020669 C2.22862687 502.52078612 2.23502351 516.77135578 2.24362527 531.0219323 C2.25208322 545.32954416 2.25310628 559.63714166 2.24651595 573.94475463 C2.24280835 582.45361212 2.2446886 590.96242611 2.25445829 599.47127903 C2.26042635 605.14662577 2.2591985 610.82194075 2.25198779 616.49728599 C2.24807933 619.73623024 2.2484948 622.97507226 2.25544515 626.21401396 C2.26242356 629.69451966 2.25727648 633.17479511 2.24888897 636.65529251 C2.25634124 638.18064117 2.25634124 638.18064117 2.26394406 639.73680496 C2.25919325 640.65914027 2.25444244 641.58147559 2.24954766 642.53176045 C2.24967999 643.72664047 2.24967999 643.72664047 2.249815 644.94565947 C2 647 2 647 0 650 C0 569.15 0 488.3 0 405 C-2.64 405.33 -5.28 405.66 -8 406 C-5 404 -5 404 -2 403 C-1.34 369.34 -0.68 335.68 0 301 C-0.66 300.67 -1.32 300.34 -2 300 C-1.34 300 -0.68 300 0 300 C0 201 0 102 0 0 Z " fill="#6F838F" transform="translate(981,187)"/>
<path d="M0 0 C6.07054647 0.89272742 10.73083795 3.82527212 15.875 7 C20.14441934 9.60046451 24.26403731 11.42134577 29 13 C29 13.66 29 14.32 29 15 C29.56203125 15.12246094 30.1240625 15.24492188 30.703125 15.37109375 C33.18986519 16.0519869 35.40514776 16.99352325 37.75 18.0625 C38.54921875 18.42472656 39.3484375 18.78695312 40.171875 19.16015625 C40.77515625 19.43730469 41.3784375 19.71445312 42 20 C42 20.66 42 21.32 42 22 C42.66 22.0825 43.32 22.165 44 22.25 C47.08840944 23.02210236 49.5703555 24.30029417 52.37890625 25.765625 C56.37295111 27.64657608 60.51376617 29.12772571 64.66137695 30.62963867 C68.73727925 32.1156394 72.73017264 33.72937114 76.71875 35.4375 C82.95198462 38.05265466 89.28032919 40.1179709 95.75 42.0625 C96.8939624 42.40829102 98.0379248 42.75408203 99.21655273 43.11035156 C102.47408654 44.08643653 105.73529244 45.0482134 109 46 C109.77424316 46.22606934 110.54848633 46.45213867 111.34619141 46.68505859 C151.91878336 58.28424308 199.08345642 60.38638283 240.33203125 51.32128906 C244.64398718 50.38336773 248.55355228 49.78519576 253 50 C225.41576149 66.59479589 172.64219474 60.5710632 142.625 55.8125 C141.58552719 55.64868835 141.58552719 55.64868835 140.52505493 55.48156738 C108.86576696 50.4406974 79.00915771 40.56909256 50 27 C48.93974609 26.50564453 47.87949219 26.01128906 46.78710938 25.50195312 C35.85398676 20.38137671 25.00929122 15.09882216 14.3125 9.5 C13.55275879 9.10288818 12.79301758 8.70577637 12.01025391 8.29663086 C7.83587263 6.07937649 3.84208299 3.75903912 0 1 C0 0.67 0 0.34 0 0 Z " fill="#5ACFCF" transform="translate(528,690)"/>
<path d="M0 0 C1.98 0.66 3.96 1.32 6 2 C4.68 2.33 3.36 2.66 2 3 C2.33 3.99 2.66 4.98 3 6 C2.76995673 7.89898095 2.53476406 9.79756308 2.26639175 11.69150734 C1.78315075 15.87916817 1.8614062 20.07334832 1.87060547 24.28393555 C1.86885315 25.28169006 1.86710083 26.27944458 1.86529541 27.30743408 C1.86091747 30.58388034 1.86379988 33.86027201 1.8671875 37.13671875 C1.86651346 39.42259227 1.86554259 41.70846572 1.86428833 43.99433899 C1.86281699 48.77463466 1.86494839 53.55491159 1.86962891 58.33520508 C1.87533555 64.4618996 1.87203769 70.58855041 1.86605644 76.71524334 C1.86244389 81.43095734 1.86359246 86.14666095 1.86618423 90.86237526 C1.86685107 93.12181414 1.86603356 95.38125397 1.86370468 97.64069176 C1.86116575 100.79523596 1.86503592 103.94970913 1.87060547 107.10424805 C1.86858124 108.03682938 1.86655701 108.96941071 1.86447144 109.93025208 C1.87821472 114.1313297 2.16917437 117.87595542 3 122 C2.66960995 123.3340657 2.33591496 124.66731473 2 126 C1.90414656 127.39820327 1.85435854 128.80004846 1.84178162 130.20147705 C1.82709839 131.44660568 1.82709839 131.44660568 1.81211853 132.71688843 C1.80636307 133.6188797 1.8006076 134.52087097 1.79467773 135.45019531 C1.78477814 136.40662933 1.77487854 137.36306335 1.76467896 138.34848022 C1.7331035 141.50833668 1.70832208 144.66820816 1.68359375 147.828125 C1.66302082 150.01959625 1.64202425 152.21106356 1.62062073 154.40252686 C1.56543515 160.1695639 1.51601033 165.93663655 1.46777344 171.70373535 C1.4175328 177.58898079 1.3618601 183.47417454 1.30664062 189.359375 C1.19910201 200.90620584 1.09764745 212.45308157 1 224 C0.67 224 0.34 224 0 224 C0 150.08 0 76.16 0 0 Z " fill="#4296A1" transform="translate(41,511)"/>
<path d="M0 0 C-25.32191615 15.23377309 -74.95317612 11.21124855 -102.875 6.9375 C-104.04804687 6.76089844 -105.22109375 6.58429687 -106.4296875 6.40234375 C-107.27789063 6.26957031 -108.12609375 6.13679687 -109 6 C-109 5.67 -109 5.34 -109 5 C-103.47712836 3.95670985 -98.85663944 4.22377682 -93.3125 4.9375 C-66.5977311 7.89652316 -38.9178414 7.09015642 -12.66796875 1.32128906 C-8.35601282 0.38336773 -4.44644772 -0.21480424 0 0 Z " fill="#4AB7B8" transform="translate(781,740)"/>
<path d="M0 0 C6.07054647 0.89272742 10.73083795 3.82527212 15.875 7 C20.14441934 9.60046451 24.26403731 11.42134577 29 13 C29 13.66 29 14.32 29 15 C29.56203125 15.12246094 30.1240625 15.24492188 30.703125 15.37109375 C33.18986519 16.0519869 35.40514776 16.99352325 37.75 18.0625 C38.54921875 18.42472656 39.3484375 18.78695312 40.171875 19.16015625 C40.77515625 19.43730469 41.3784375 19.71445312 42 20 C42 20.66 42 21.32 42 22 C43.65 22.33 45.3 22.66 47 23 C47 23.66 47 24.32 47 25 C41.83781604 23.45778349 37.23466236 21.23716355 32.4609375 18.7890625 C31.65766022 18.37965424 30.85438293 17.97024597 30.02676392 17.5484314 C28.33636795 16.68489862 26.64712697 15.81910157 24.95898438 14.95117188 C22.38068978 13.62792015 19.79609858 12.31758814 17.2109375 11.0078125 C15.56470405 10.16484343 13.91885723 9.32111879 12.2734375 8.4765625 C11.50357513 8.08787994 10.73371277 7.69919739 9.94052124 7.29873657 C6.03267139 5.27388933 2.92055821 3.38792445 0 0 Z " fill="#4BC2C2" transform="translate(528,690)"/>
<path d="M0 0 C0.66 0.33 1.32 0.66 2 1 C1.16855469 1.54269531 0.33710937 2.08539062 -0.51953125 2.64453125 C-1.60621094 3.35996094 -2.69289063 4.07539062 -3.8125 4.8125 C-4.89144531 5.52019531 -5.97039063 6.22789062 -7.08203125 6.95703125 C-9.36729583 8.55702238 -11.06009681 10.05461686 -13 12 C-14.41311685 12.83441185 -15.85334225 13.62399998 -17.3125 14.375 C-21.34137896 16.5408516 -24.60116767 18.94976585 -28 22 C-28 21.01 -28 20.02 -28 19 C-25.81097865 17.12585862 -23.66056462 15.46580184 -21.3125 13.8125 C-20.64001221 13.33071289 -19.96752441 12.84892578 -19.2746582 12.35253906 C-6.38348604 3.21656217 -6.38348604 3.21656217 0 0 Z " fill="#05232C" transform="translate(649,517)"/>
<path d="M0 0 C-5.90492762 3.82992501 -11.8082789 7.55803964 -18.02734375 10.859375 C-20.08697676 11.99240682 -20.08697676 11.99240682 -22.12890625 13.640625 C-24 15 -24 15 -26 15 C-23.80770314 9.51481701 -19.00558649 7.57272749 -14.125 4.6875 C-13.21363281 4.12482422 -12.30226563 3.56214844 -11.36328125 2.98242188 C-10.48285156 2.45583984 -9.60242188 1.92925781 -8.6953125 1.38671875 C-7.89109863 0.90420654 -7.08688477 0.42169434 -6.25830078 -0.07543945 C-3.66402844 -1.13754857 -2.57728746 -0.98040162 0 0 Z " fill="#4FEEDF" transform="translate(671,429)"/>
<path d="M0 0 C0.33 0 0.66 0 1 0 C0.99476318 0.88260498 0.98952637 1.76520996 0.98413086 2.67456055 C0.96704029 5.96395527 0.95452616 9.25330247 0.94506836 12.54272461 C0.94005435 13.96363064 0.93324148 15.38453156 0.92456055 16.80541992 C0.91236612 18.85336576 0.90674228 20.9012431 0.90234375 22.94921875 C0.89710693 24.17987061 0.89187012 25.41052246 0.88647461 26.6784668 C0.98624473 29.59754747 1.39801226 32.15638759 2 35 C1.5625 37.3125 1.5625 37.3125 1 39 C0.34 39 -0.32 39 -1 39 C-1.02471188 33.92798214 -1.04286564 28.85599929 -1.05493164 23.78393555 C-1.05996158 22.0583434 -1.06678626 20.33275552 -1.07543945 18.60717773 C-1.08756361 16.1274307 -1.09324169 13.64774 -1.09765625 11.16796875 C-1.10539818 10.01001045 -1.10539818 10.01001045 -1.11329651 8.82865906 C-1.11363318 5.6169772 -1.02326578 3.06979734 0 0 Z " fill="#3FA3AD" transform="translate(42,598)"/>
<path d="M0 0 C0.66 0 1.32 0 2 0 C2.37503829 5.12552327 1.14595604 8.37794084 -1 13 C-1.2990625 13.92039062 -1.598125 14.84078125 -1.90625 15.7890625 C-3.09510164 19.27919123 -4.55871733 22.53813692 -6.125 25.875 C-6.66382813 27.02742187 -7.20265625 28.17984375 -7.7578125 29.3671875 C-8.16773438 30.23601563 -8.57765625 31.10484375 -9 32 C-10.35209534 27.94371399 -8.8527625 25.54862303 -7.25 21.8125 C-6.68840534 20.45589334 -6.12720355 19.09912397 -5.56640625 17.7421875 C-5.2945752 17.0934668 -5.02274414 16.44474609 -4.74267578 15.77636719 C-2.56927255 10.57791818 -0.70413919 5.63311349 0 0 Z " fill="#87909C" transform="translate(977,858)"/>
<path d="M0 0 C-2.34457823 2.34457823 -4.62734093 2.98374645 -7.70703125 4.06640625 C-10.98874858 5.40257395 -13.92346133 7.23267004 -16.921875 9.109375 C-19.4454435 10.19090436 -20.43658113 9.76166336 -23 9 C-19.92725154 7.29266954 -16.84034212 5.61274352 -13.75 3.9375 C-12.87730469 3.45216797 -12.00460937 2.96683594 -11.10546875 2.46679688 C-10.26113281 2.01240234 -9.41679687 1.55800781 -8.546875 1.08984375 C-7.77182617 0.66566162 -6.99677734 0.24147949 -6.19824219 -0.19555664 C-3.66134523 -1.12393019 -2.49749524 -0.91790413 0 0 Z " fill="#49EFE4" transform="translate(298,450)"/>
<path d="M0 0 C1.98 0.66 3.96 1.32 6 2 C4.68 2.33 3.36 2.66 2 3 C2.33 3.99 2.66 4.98 3 6 C2.79614386 7.80072923 2.58333338 9.60091962 2.32421875 11.39453125 C1.63853516 16.90478367 1.3656487 22.46081112 1 28 C0.67 28 0.34 28 0 28 C0 18.76 0 9.52 0 0 Z " fill="#49C1C4" transform="translate(41,511)"/>
<path d="M0 0 C0.99 0.33 1.98 0.66 3 1 C-8 9 -8 9 -19 17 C-19 16.01 -19 15.02 -19 14 C-17.57885742 12.58959961 -17.57885742 12.58959961 -15.60546875 11.15234375 C-14.89712891 10.62962891 -14.18878906 10.10691406 -13.45898438 9.56835938 C-12.70939453 9.03017578 -11.95980469 8.49199219 -11.1875 7.9375 C-10.44951172 7.39544922 -9.71152344 6.85339844 -8.95117188 6.29492188 C-6.00212505 4.13584596 -3.04155191 2.02770127 0 0 Z " fill="#052A32" transform="translate(603,550)"/>
<path d="M0 0 C6.57330785 0.96666292 11.64163242 4.30017476 17 8 C16.67 8.66 16.34 9.32 16 10 C13.51705004 8.71520038 11.03874091 7.4226131 8.5625 6.125 C7.85544922 5.76019531 7.14839844 5.39539063 6.41992188 5.01953125 C1.11328125 2.2265625 1.11328125 2.2265625 0 0 Z " fill="#3DB6B9" transform="translate(528,690)"/>
<path d="M0 0 C-14.73786408 9 -14.73786408 9 -18 9 C-18 8.34 -18 7.68 -18 7 C-15.56876731 5.63336613 -13.13113837 4.2816133 -10.6875 2.9375 C-9.99720703 2.54755859 -9.30691406 2.15761719 -8.59570312 1.75585938 C-3.33984375 -1.11328125 -3.33984375 -1.11328125 0 0 Z " fill="#43ECDF" transform="translate(266,466)"/>
<path d="M0 0 C7.09406894 0.58476056 14.01563899 1.63233995 21 3 C21 3.33 21 3.66 21 4 C13.44592983 4.27863374 6.49823007 4.33215338 0 0 Z " fill="#5DDBDA" transform="translate(655,741)"/>
<path d="M0 0 C0.66 0.66 1.32 1.32 2 2 C1.09507813 2.79664062 1.09507813 2.79664062 0.171875 3.609375 C-0.62734375 4.31578125 -1.4265625 5.0221875 -2.25 5.75 C-3.03890625 6.44609375 -3.8278125 7.1421875 -4.640625 7.859375 C-6.83011856 9.84586916 -8.92901285 11.89101308 -11 14 C-11.66 13.67 -12.32 13.34 -13 13 C-8.71 8.71 -4.42 4.42 0 0 Z " fill="#222F45" transform="translate(94,82)"/>
<path d="M0 0 C2.0625 0.4375 2.0625 0.4375 4 1 C1.2118978 2.5066972 -1.58103958 4.00419804 -4.375 5.5 C-5.1690625 5.92925781 -5.963125 6.35851562 -6.78125 6.80078125 C-7.92207031 7.40986328 -7.92207031 7.40986328 -9.0859375 8.03125 C-9.7876709 8.40830078 -10.4894043 8.78535156 -11.21240234 9.17382812 C-13 10 -13 10 -15 10 C-15 9.34 -15 8.68 -15 8 C-14.00097656 7.50628906 -13.00195312 7.01257813 -11.97265625 6.50390625 C-10.6692186 5.85687605 -9.36583602 5.20973489 -8.0625 4.5625 C-7.40314453 4.23701172 -6.74378906 3.91152344 -6.06445312 3.57617188 C-2.81709965 2.10888654 -2.81709965 2.10888654 0 0 Z " fill="#4CDFCE" transform="translate(665,506)"/>
<path d="M0 0 C0.66 0.33 1.32 0.66 2 1 C-0.5988655 4.03656917 -3.62071728 5.46163739 -7.1875 7.1875 C-8.27417969 7.71730469 -9.36085938 8.24710937 -10.48046875 8.79296875 C-11.31191406 9.19128906 -12.14335938 9.58960938 -13 10 C-11.510461 5.93036665 -9.2524608 4.67729172 -5.5 2.6875 C-4.5203125 2.15511719 -3.540625 1.62273437 -2.53125 1.07421875 C-1.27828125 0.54248047 -1.27828125 0.54248047 0 0 Z " fill="#51EDDE" transform="translate(641,444)"/>
<path d="M0 0 C0.99 0.99 1.98 1.98 3 3 C2.67 3.66 2.34 4.32 2 5 C1.84824451 6.59262066 1.75099675 8.19064856 1.68359375 9.7890625 C1.64169922 10.73007812 1.59980469 11.67109375 1.55664062 12.640625 C1.51732422 13.62546875 1.47800781 14.6103125 1.4375 15.625 C1.39431641 16.61757813 1.35113281 17.61015625 1.30664062 18.6328125 C1.20038931 21.08839838 1.09835036 23.54408703 1 26 C0.67 26 0.34 26 0 26 C0 17.42 0 8.84 0 0 Z " fill="#002430" transform="translate(42,637)"/>
<path d="M0 0 C-2.97180943 1.89865603 -5.51460083 3.35455571 -9 4 C-9 4.66 -9 5.32 -9 6 C-10.32 6 -11.64 6 -13 6 C-13 5.34 -13 4.68 -13 4 C-11.40233897 3.13372601 -9.79660056 2.28233535 -8.1875 1.4375 C-7.29417969 0.96183594 -6.40085938 0.48617188 -5.48046875 -0.00390625 C-3 -1 -3 -1 0 0 Z " fill="#44E5DA" transform="translate(230,486)"/>
<path d="M0 0 C-3.96 1.98 -7.92 3.96 -12 6 C-12 5.01 -12 4.02 -12 3 C-10.5682384 2.30062798 -9.12932968 1.61587282 -7.6875 0.9375 C-6.48673828 0.36322266 -6.48673828 0.36322266 -5.26171875 -0.22265625 C-3 -1 -3 -1 0 0 Z " fill="#4BEEE0" transform="translate(687,421)"/>
<path d="M0 0 C0.99 0.495 0.99 0.495 2 1 C3.46125461 9.10332103 3.46125461 9.10332103 2 13 C1.34 13 0.68 13 0 13 C0 8.71 0 4.42 0 0 Z " fill="#3699A2" transform="translate(41,624)"/>
<path d="M0 0 C-1.4562545 0.67119549 -2.91507867 1.33681807 -4.375 2 C-5.59316406 2.556875 -5.59316406 2.556875 -6.8359375 3.125 C-9 4 -9 4 -11 4 C-11 3.34 -11 2.68 -11 2 C-4.03571429 -1.34821429 -4.03571429 -1.34821429 0 0 Z " fill="#45F0E6" transform="translate(329,437)"/>
<path d="M0 0 C-1.13499394 3.29148243 -1.99283376 3.9959869 -5.125 5.75 C-6.548125 6.36875 -6.548125 6.36875 -8 7 C-6.47663111 3.31852519 -4.31953005 0 0 0 Z " fill="#03212B" transform="translate(619,539)"/>
<path d="M0 0 C3.95820859 0.56545837 6.6659053 1.80902348 10 4 C9.67 4.66 9.34 5.32 9 6 C7.68397477 5.38245741 6.37226444 4.75571258 5.0625 4.125 C4.33160156 3.77695312 3.60070312 3.42890625 2.84765625 3.0703125 C1 2 1 2 0 0 Z " fill="#4AF1D7" transform="translate(774,425)"/>
<path d="M0 0 C-2.91403262 1.94268841 -5.85808576 3.46395304 -9 5 C-9.66 4.34 -10.32 3.68 -11 3 C-7.14243493 0.84694043 -4.44870215 -0.39253254 0 0 Z " fill="#40D5D1" transform="translate(204,499)"/>
<path d="M0 0 C0 3 0 3 -2.5 5.6875 C-3.325 6.450625 -4.15 7.21375 -5 8 C-5.66 7.67 -6.32 7.34 -7 7 C-4.69 4.69 -2.38 2.38 0 0 Z " fill="#2C394E" transform="translate(88,88)"/>
</svg>
